<svg id="katman_1" data-name="katman 1" xmlns="http://www.w3.org/2000/svg" viewBox="0 0 201.42 28.08"><defs><style>.cls-1{fill:#fff;}</style></defs><title>quic-logo</title><path class="cls-1" d="M212.9,540c-8.1,0-13.61-4.72-13.61-13.07,0-7.74,5.94-13.1,13.82-13.1s13.71,5.33,13.71,13a10.59,10.59,0,0,1-3.78,8.28v0.11l5.36-.11V540H212.9Zm0.22-20.59c-4.1,0-7.2,3.17-7.2,7.6s3,7.74,7.16,7.74,7.24-3.17,7.24-7.74S217.37,519.41,213.12,519.41Z" transform="translate(-199.3 -512.36)"/><path class="cls-1" d="M244.33,540c-0.07-.9-0.14-2.16-0.14-2.88h-0.07a6.57,6.57,0,0,1-5.76,3.31c-4.28,0-6.41-2.77-6.41-6.95V523.15h2.45v9.32c0,3.53,1,5.9,4.57,5.9,2.59,0,5.11-2.09,5.11-6.59v-8.64h2.45v13.14c0,0.9,0,2.56.14,3.71h-2.34Z" transform="translate(-199.3 -512.36)"/><path class="cls-1" d="M254.27,518.4a1.73,1.73,0,1,1,1.73-1.73A1.75,1.75,0,0,1,254.27,518.4Zm1.22,21.6H253V523.15h2.45V540Z" transform="translate(-199.3 -512.36)"/><path class="cls-1" d="M274.14,527a5.13,5.13,0,0,0-4.32-2.23c-3.92,0-6.44,3-6.44,6.8s2.48,6.77,6.41,6.77a5.43,5.43,0,0,0,4.57-2.2l1.84,1.37a7.84,7.84,0,0,1-6.41,2.92c-5.44,0-9-3.78-9-8.85s3.56-8.85,9-8.85a7.93,7.93,0,0,1,6.26,2.92Z" transform="translate(-199.3 -512.36)"/><path class="cls-1" d="M287.6,525.21h-4.75V535c0,2.52,1,3.1,2.52,3.1a5,5,0,0,0,2.12-.54l0.11,2.12a7.9,7.9,0,0,1-2.88.5c-1.8,0-4.32-.79-4.32-4.5V525.21h-3.49v-2.05h3.49V518.4h2.45v4.75h4.75v2.05Z" transform="translate(-199.3 -512.36)"/><path class="cls-1" d="M291.27,523.15h2.34c0.07,0.9.14,2.16,0.14,2.88h0.07a6,6,0,0,1,5.4-3.31,5.72,5.72,0,0,1,1.62.18l-0.32,2.3a6.53,6.53,0,0,0-1.73-.22c-2.59,0-4.93,1.87-4.93,6.37V540h-2.45V526.86C291.42,526,291.38,524.31,291.27,523.15Z" transform="translate(-199.3 -512.36)"/><path class="cls-1" d="M314.57,529.13c0-2.92-1.58-4.36-4.5-4.36a7.16,7.16,0,0,0-5,2l-1.37-1.62a9.44,9.44,0,0,1,6.62-2.41c3.64,0,6.55,2,6.55,6.12v7.38a23,23,0,0,0,.29,3.78H315a16.85,16.85,0,0,1-.25-2.74h-0.07a6.77,6.77,0,0,1-6.12,3.17c-2.56,0-5.83-1.37-5.83-5.11,0-5.18,5.72-5.65,11.88-5.65v-0.54Zm-0.72,2.45c-4,0-8.64.43-8.64,3.64,0,2.41,2.05,3.2,4,3.2a5.26,5.26,0,0,0,5.4-5.58v-1.26h-0.72Z" transform="translate(-199.3 -512.36)"/><path class="cls-1" d="M325.37,523.15c0.07,0.9.14,2.16,0.14,2.88h0.07a6.57,6.57,0,0,1,5.76-3.31c4.28,0,6.41,2.77,6.41,6.95V540H335.3v-9.32c0-3.53-1-5.9-4.57-5.9-2.59,0-5.11,2.09-5.11,6.59V540h-2.45V526.86c0-.9,0-2.56-0.14-3.71h2.34Z" transform="translate(-199.3 -512.36)"/><path class="cls-1" d="M353,527.15a4.57,4.57,0,0,0-4.14-2.38c-1.76,0-3.56.76-3.56,2.63,0,1.58,1.26,2.3,4,2.88,4,0.83,5.83,2.3,5.83,4.93,0,3.85-3.24,5.22-6.33,5.22a7.87,7.87,0,0,1-6.66-3.28l1.94-1.44a5.58,5.58,0,0,0,4.68,2.63c2.09,0,4-.76,4-3,0-1.76-1.76-2.48-5-3.24-2-.47-4.82-1.33-4.82-4.54,0-3.42,3-4.89,6-4.89a6.87,6.87,0,0,1,5.9,3Z" transform="translate(-199.3 -512.36)"/><path class="cls-1" d="M367.2,525.21h-4V540h-2.45V525.21h-3.53v-2.05h3.53v-4.61c0-3.82,1.87-6.19,5.72-6.19a7.74,7.74,0,0,1,2,.25l-0.43,2.16a6,6,0,0,0-1.69-.25c-2.63,0-3.17,1.87-3.17,4.32v4.32h4v2.05Z" transform="translate(-199.3 -512.36)"/><path class="cls-1" d="M386,532.22H372a6.15,6.15,0,0,0,6.16,6.12,6.38,6.38,0,0,0,5.4-2.92l1.84,1.44a8.79,8.79,0,0,1-7.24,3.56,8.86,8.86,0,0,1-.22-17.71c5.29,0,8.06,3.74,8.06,8.35C386,531.4,386,531.79,386,532.22Zm-2.45-1.94c-0.14-3.17-2.09-5.51-5.58-5.51a6,6,0,0,0-5.9,5.51h11.48Z" transform="translate(-199.3 -512.36)"/><path class="cls-1" d="M391.14,523.15h2.34c0.07,0.9.14,2.16,0.14,2.88h0.07a6,6,0,0,1,5.4-3.31,5.71,5.71,0,0,1,1.62.18l-0.32,2.3a6.53,6.53,0,0,0-1.73-.22c-2.59,0-4.93,1.87-4.93,6.37V540h-2.45V526.86C391.28,526,391.24,524.31,391.14,523.15Z" transform="translate(-199.3 -512.36)"/></svg>