<?xml version="1.0" encoding="utf-8"?>
<!-- Generator: Adobe Illustrator 19.2.0, SVG Export Plug-In . SVG Version: 6.00 Build 0)  -->
<svg version="1.1" xmlns="http://www.w3.org/2000/svg" xmlns:xlink="http://www.w3.org/1999/xlink" x="0px" y="0px"
	 viewBox="0 0 202.1 28.8" style="enable-background:new 0 0 202.1 28.8;" xml:space="preserve">
<style type="text/css">
	.st0{fill:#FFFFFF;}
</style>
<g id="katman_1_kopya">
	<g>
		<title>quic-logo</title>
		<path d="M14.6,28.6C6.5,28.6,1,23.9,1,15.6C1,7.8,6.9,2.5,14.8,2.5s13.7,5.3,13.7,13c0.1,3.2-1.3,6.2-3.8,8.3v0.1l5.4-0.1v4.9
			H14.6z M14.8,8.1c-4.1,0-7.2,3.2-7.2,7.6s3,7.7,7.2,7.7s7.2-3.2,7.2-7.7S19.1,8.1,14.8,8.1z"/>
		<path d="M46,28.6c-0.1-0.9-0.1-2.2-0.1-2.9h-0.1c-1.2,2.1-3.4,3.3-5.8,3.3c-4.3,0-6.4-2.8-6.4-7V11.8h2.4v9.3c0,3.5,1,5.9,4.6,5.9
			c2.6,0,5.1-2.1,5.1-6.6v-8.6h2.4v13.1c0,0.9,0,2.6,0.1,3.7L46,28.6L46,28.6z"/>
		<path d="M56,7c-1,0-1.7-0.8-1.7-1.7c0-1,0.8-1.7,1.7-1.7c1,0,1.7,0.8,1.7,1.7l0,0C57.7,6.3,56.9,7,56,7z M57.2,28.6h-2.5V11.8h2.4
			L57.2,28.6L57.2,28.6z"/>
		<path d="M75.9,15.6c-1-1.4-2.6-2.3-4.3-2.2c-3.9,0-6.4,3-6.4,6.8s2.5,6.8,6.4,6.8c1.8,0.1,3.5-0.8,4.6-2.2l1.8,1.4
			c-1.6,1.9-3.9,3-6.4,2.9c-5.4,0-9-3.8-9-8.8s3.6-8.8,9-8.8c2.4,0,4.7,1,6.3,2.9L75.9,15.6z"/>
		<path d="M89.3,13.9h-4.8v9.8c0,2.5,1,3.1,2.5,3.1c0.7,0,1.5-0.2,2.1-0.5l0.1,2.1c-0.9,0.3-1.9,0.5-2.9,0.5c-1.8,0-4.3-0.8-4.3-4.5
			V13.9h-3.5v-2h3.5V7h2.5v4.8h4.8L89.3,13.9L89.3,13.9z"/>
		<path d="M93,11.8h2.3c0.1,0.9,0.1,2.2,0.1,2.9h0.1c1-2,3.1-3.3,5.4-3.3c0.5,0,1.1,0,1.6,0.2l-0.3,2.3c-0.6-0.2-1.1-0.2-1.7-0.2
			c-2.6,0-4.9,1.9-4.9,6.4v8.6h-2.5V15.5C93.1,14.6,93.1,13,93,11.8z"/>
		<path d="M116.3,17.8c0-2.9-1.6-4.4-4.5-4.4c-1.9,0-3.7,0.7-5,2l-1.4-1.6c1.8-1.6,4.2-2.5,6.6-2.4c3.6,0,6.5,2,6.5,6.1v7.4
			c0,1.3,0.1,2.5,0.3,3.8h-2.2c-0.2-0.9-0.2-1.8-0.3-2.7h-0.1c-1.3,2.1-3.7,3.3-6.1,3.2c-2.6,0-5.8-1.4-5.8-5.1
			c0-5.2,5.7-5.7,11.9-5.7L116.3,17.8L116.3,17.8z M115.6,20.2c-4,0-8.6,0.4-8.6,3.6c0,2.4,2,3.2,4,3.2c2.9,0.1,5.3-2.2,5.4-5.1
			c0-0.2,0-0.3,0-0.5v-1.3H115.6L115.6,20.2z"/>
		<path d="M127.1,11.8c0.1,0.9,0.1,2.2,0.1,2.9h0.1c1.2-2.1,3.4-3.3,5.8-3.3c4.3,0,6.4,2.8,6.4,7v10.3H137v-9.3c0-3.5-1-5.9-4.6-5.9
			c-2.6,0-5.1,2.1-5.1,6.6v8.6h-2.5V15.5c0-0.9,0-2.6-0.1-3.7L127.1,11.8L127.1,11.8z"/>
		<path d="M154.7,15.8c-0.8-1.5-2.4-2.4-4.1-2.4c-1.8,0-3.6,0.8-3.6,2.6c0,1.6,1.3,2.3,4,2.9c4,0.8,5.8,2.3,5.8,4.9
			c0,3.8-3.2,5.2-6.3,5.2c-2.6,0.1-5.1-1.1-6.7-3.3l1.9-1.4c1,1.6,2.8,2.6,4.7,2.6c2.1,0,4-0.8,4-3c0-1.8-1.8-2.5-5-3.2
			c-2-0.5-4.8-1.3-4.8-4.5c0-3.4,3-4.9,6-4.9c2.4-0.1,4.6,1.1,5.9,3L154.7,15.8z"/>
		<path d="M168.9,13.9h-4v14.8h-2.5V13.9h-3.5v-2h3.5V7.2c0-3.8,1.9-6.2,5.7-6.2c0.7,0,1.3,0.1,2,0.3l-0.4,2.2
			c-0.5-0.2-1.1-0.2-1.7-0.3c-2.6,0-3.2,1.9-3.2,4.3v4.3h4L168.9,13.9L168.9,13.9z"/>
		<path d="M187.7,20.9h-14c0,3.4,2.8,6.1,6.2,6.1c2.2,0,4.2-1.1,5.4-2.9l1.8,1.4c-1.7,2.3-4.4,3.6-7.2,3.6c-4.9-0.1-8.8-4.1-8.7-9
			c0.1-4.7,3.8-8.5,8.5-8.7c5.3,0,8.1,3.7,8.1,8.3C187.7,20,187.7,20.4,187.7,20.9z M185.3,18.9c-0.1-3.2-2.1-5.5-5.6-5.5
			c-3.1,0-5.6,2.4-5.9,5.5H185.3L185.3,18.9z"/>
		<path d="M192.9,11.8h2.3c0.1,0.9,0.1,2.2,0.1,2.9h0.1c1-2,3.1-3.3,5.4-3.3c0.5,0,1.1,0,1.6,0.2l-0.3,2.3c-0.6-0.2-1.1-0.2-1.7-0.2
			c-2.6,0-4.9,1.9-4.9,6.4v8.6H193V15.5C193,14.6,192.9,13,192.9,11.8z"/>
	</g>
</g>
<g id="katman_1">
	<g>
		<title>quic-logo</title>
		<path class="st0" d="M13.6,27.6C5.5,27.6,0,22.9,0,14.6C0,6.8,5.9,1.5,13.8,1.5s13.7,5.3,13.7,13c0.1,3.2-1.3,6.2-3.8,8.3v0.1
			l5.4-0.1v4.9H13.6z M13.8,7.1c-4.1,0-7.2,3.2-7.2,7.6s3,7.7,7.2,7.7s7.2-3.2,7.2-7.7S18.1,7.1,13.8,7.1z"/>
		<path class="st0" d="M45,27.6c-0.1-0.9-0.1-2.2-0.1-2.9h-0.1c-1.2,2.1-3.4,3.3-5.8,3.3c-4.3,0-6.4-2.8-6.4-7V10.8h2.4v9.3
			c0,3.5,1,5.9,4.6,5.9c2.6,0,5.1-2.1,5.1-6.6v-8.6h2.4v13.1c0,0.9,0,2.6,0.1,3.7L45,27.6L45,27.6z"/>
		<path class="st0" d="M55,6c-1,0-1.7-0.8-1.7-1.7c0-1,0.8-1.7,1.7-1.7c1,0,1.7,0.8,1.7,1.7l0,0C56.7,5.3,55.9,6,55,6z M56.2,27.6
			h-2.5V10.8h2.4L56.2,27.6L56.2,27.6z"/>
		<path class="st0" d="M74.9,14.6c-1-1.4-2.6-2.3-4.3-2.2c-3.9,0-6.4,3-6.4,6.8s2.5,6.8,6.4,6.8c1.8,0.1,3.5-0.8,4.6-2.2l1.8,1.4
			c-1.6,1.9-3.9,3-6.4,2.9c-5.4,0-9-3.8-9-8.8s3.6-8.8,9-8.8c2.4,0,4.7,1,6.3,2.9L74.9,14.6z"/>
		<path class="st0" d="M88.3,12.9h-4.8v9.8c0,2.5,1,3.1,2.5,3.1c0.7,0,1.5-0.2,2.1-0.5l0.1,2.1c-0.9,0.3-1.9,0.5-2.9,0.5
			c-1.8,0-4.3-0.8-4.3-4.5V12.9h-3.5v-2h3.5V6h2.5v4.8h4.8L88.3,12.9L88.3,12.9z"/>
		<path class="st0" d="M92,10.8h2.3c0.1,0.9,0.1,2.2,0.1,2.9h0.1c1-2,3.1-3.3,5.4-3.3c0.5,0,1.1,0,1.6,0.2l-0.3,2.3
			c-0.6-0.2-1.1-0.2-1.7-0.2c-2.6,0-4.9,1.9-4.9,6.4v8.6h-2.5V14.5C92.1,13.6,92.1,12,92,10.8z"/>
		<path class="st0" d="M115.3,16.8c0-2.9-1.6-4.4-4.5-4.4c-1.9,0-3.7,0.7-5,2l-1.4-1.6c1.8-1.6,4.2-2.5,6.6-2.4c3.6,0,6.5,2,6.5,6.1
			v7.4c0,1.3,0.1,2.5,0.3,3.8h-2.2c-0.2-0.9-0.2-1.8-0.3-2.7h-0.1c-1.3,2.1-3.7,3.3-6.1,3.2c-2.6,0-5.8-1.4-5.8-5.1
			c0-5.2,5.7-5.7,11.9-5.7L115.3,16.8L115.3,16.8z M114.6,19.2c-4,0-8.6,0.4-8.6,3.6c0,2.4,2,3.2,4,3.2c2.9,0.1,5.3-2.2,5.4-5.1
			c0-0.2,0-0.3,0-0.5v-1.3H114.6L114.6,19.2z"/>
		<path class="st0" d="M126.1,10.8c0.1,0.9,0.1,2.2,0.1,2.9h0.1c1.2-2.1,3.4-3.3,5.8-3.3c4.3,0,6.4,2.8,6.4,7v10.3H136v-9.3
			c0-3.5-1-5.9-4.6-5.9c-2.6,0-5.1,2.1-5.1,6.6v8.6h-2.5V14.5c0-0.9,0-2.6-0.1-3.7L126.1,10.8L126.1,10.8z"/>
		<path class="st0" d="M153.7,14.8c-0.8-1.5-2.4-2.4-4.1-2.4c-1.8,0-3.6,0.8-3.6,2.6c0,1.6,1.3,2.3,4,2.9c4,0.8,5.8,2.3,5.8,4.9
			c0,3.8-3.2,5.2-6.3,5.2c-2.6,0.1-5.1-1.1-6.7-3.3l1.9-1.4c1,1.6,2.8,2.6,4.7,2.6c2.1,0,4-0.8,4-3c0-1.8-1.8-2.5-5-3.2
			c-2-0.5-4.8-1.3-4.8-4.5c0-3.4,3-4.9,6-4.9c2.4-0.1,4.6,1.1,5.9,3L153.7,14.8z"/>
		<path class="st0" d="M167.9,12.9h-4v14.8h-2.5V12.9h-3.5v-2h3.5V6.2c0-3.8,1.9-6.2,5.7-6.2c0.7,0,1.3,0.1,2,0.2l-0.4,2.2
			c-0.5-0.2-1.1-0.2-1.7-0.3c-2.6,0-3.2,1.9-3.2,4.3v4.3h4L167.9,12.9L167.9,12.9z"/>
		<path class="st0" d="M186.7,19.9h-14c0,3.4,2.8,6.1,6.2,6.1c2.2,0,4.2-1.1,5.4-2.9l1.8,1.4c-1.7,2.3-4.4,3.6-7.2,3.6
			c-4.9-0.1-8.8-4.1-8.7-9c0.1-4.7,3.8-8.5,8.5-8.7c5.3,0,8.1,3.7,8.1,8.3C186.7,19,186.7,19.4,186.7,19.9z M184.3,17.9
			c-0.1-3.2-2.1-5.5-5.6-5.5c-3.1,0-5.6,2.4-5.9,5.5H184.3L184.3,17.9z"/>
		<path class="st0" d="M191.9,10.8h2.3c0.1,0.9,0.1,2.2,0.1,2.9h0.1c1-2,3.1-3.3,5.4-3.3c0.5,0,1.1,0,1.6,0.2l-0.3,2.3
			c-0.6-0.2-1.1-0.2-1.7-0.2c-2.6,0-4.9,1.9-4.9,6.4v8.6H192V14.5C192,13.6,191.9,12,191.9,10.8z"/>
	</g>
</g>
</svg>
